<mxfile host="app.diagrams.net" modified="2021-11-14T06:11:15.105Z" agent="5.0 (Windows NT 10.0; Win64; x64) AppleWebKit/537.36 (KHTML, like Gecko) Chrome/95.0.4638.69 Safari/537.36 Edg/95.0.1020.53" etag="ZWiCy_8zfH2ZgWG6v6k9" version="15.7.3" type="github">
  <diagram id="f5VqANv_ky-4fEtcYqvE" name="Page-1">
    <mxGraphModel dx="1038" dy="571" grid="1" gridSize="10" guides="1" tooltips="1" connect="1" arrows="1" fold="1" page="1" pageScale="1" pageWidth="827" pageHeight="1169" math="0" shadow="0">
      <root>
        <mxCell id="0" />
        <mxCell id="1" parent="0" />
        <mxCell id="KYbwd9MnSJM38WU70V4Y-1" value="&lt;font style=&quot;font-size: 20px&quot;&gt;clavicode-frontend&lt;/font&gt;" style="shape=folder;fontStyle=1;spacingTop=10;tabWidth=40;tabHeight=14;tabPosition=left;html=1;" vertex="1" parent="1">
          <mxGeometry x="50" y="260" width="260" height="120" as="geometry" />
        </mxCell>
        <mxCell id="KYbwd9MnSJM38WU70V4Y-2" value="&lt;font style=&quot;font-size: 20px&quot;&gt;clavicode-backend&lt;/font&gt;" style="shape=folder;fontStyle=1;spacingTop=10;tabWidth=40;tabHeight=14;tabPosition=left;html=1;" vertex="1" parent="1">
          <mxGeometry x="390" y="260" width="310" height="120" as="geometry" />
        </mxCell>
      </root>
    </mxGraphModel>
  </diagram>
</mxfile>
